<?xml version="1.0" encoding="UTF-8"?>
<svg id="Layer_1" data-name="Layer 1" xmlns="http://www.w3.org/2000/svg" xmlns:xlink="http://www.w3.org/1999/xlink" viewBox="0 0 559.72 969.46">
  <defs>
    <style>
      .cls-1 {
        fill: #741a2f;
      }

      .cls-2 {
        fill: url(#linear-gradient);
      }
    </style>
    <linearGradient id="linear-gradient" x1="0" y1="484.73" x2="559.72" y2="484.73" gradientUnits="userSpaceOnUse">
      <stop offset="0" stop-color="#ffc6a8" stop-opacity=".05"/>
      <stop offset=".32" stop-color="#ffc6a8"/>
      <stop offset=".64" stop-color="#ffc6a8"/>
      <stop offset="1" stop-color="#ffc6a8" stop-opacity=".05"/>
    </linearGradient>
  </defs>
  <path class="cls-1" d="M0,0c48.47,27.99,96.94,55.97,145.42,83.96,32.92,19,65.83,38.01,98.75,57.01,5.52,3.19,17.42,11.04,26.13,26.13,6.16,10.67,9.56,22.94,9.56,35.69v164.47c0,72.69,38.78,139.86,101.73,176.2l142.43,82.23c22.09,12.75,35.69,36.32,35.69,61.82,0,40.09,0,80.17,0,120.26,0,53.89,0,107.79,0,161.68-100.92-58.27-201.84-116.53-302.76-174.8C97.95,702.86,0,533.2,0,349.6V0Z"/>
  <path class="cls-2" d="M15,25.98l83.95,48.47,38.96,22.5,49.37,28.51,49.37,28.51c5.97,3.45,14.39,9.82,20.64,20.64,4.94,8.56,7.55,18.31,7.55,28.19v164.47c0,77.8,41.86,150.3,109.23,189.2l142.43,82.23c17.39,10.04,28.19,28.75,28.19,48.83v60.13s0,60.13,0,60.13v80.84s0,54.86,0,54.86l-169.44-97.83-110.82-63.98c-75.74-43.73-138.89-106.88-182.61-182.62S15,437.05,15,349.6V25.98M0,0v349.6c0,183.6,97.95,353.26,256.95,445.06,100.92,58.27,201.84,116.53,302.76,174.8,0-53.89,0-107.79,0-161.68,0-40.09,0-80.17,0-120.26,0-25.5-13.61-49.07-35.69-61.82l-142.43-82.23c-62.95-36.35-101.73-103.51-101.73-176.2v-164.47c0-12.75-3.4-25.02-9.56-35.69-8.71-15.09-20.61-22.94-26.13-26.13-32.92-19-65.83-38.01-98.75-57.01C96.95,55.97,48.47,27.99,0,0H0Z"/>
</svg>