<?xml version="1.0" encoding="UTF-8"?>
<svg id="Layer_1" xmlns="http://www.w3.org/2000/svg" version="1.1" viewBox="0 0 1000 1000">
  <!-- Generator: Adobe Illustrator 29.8.1, SVG Export Plug-In . SVG Version: 2.1.1 Build 2)  -->
  <defs>
    <style>
      .st0 {
        fill: #2a2a2f;
      }

      .st1 {
        fill: #9a9aa0;
      }
    </style>
  </defs>
  <rect class="st0" y="0" width="1000" height="1000"/>
  <path class="st1" d="M308.05,167.54c33.25,19.19,66.49,38.39,99.74,57.58,22.58,13.03,45.15,26.07,67.73,39.1,3.79,2.19,11.95,7.57,17.92,17.92,4.23,7.32,6.56,15.73,6.56,24.48v112.8c0,49.86,26.6,95.93,69.78,120.85l97.69,56.4c15.15,8.75,24.48,24.91,24.48,42.4,0,27.49,0,54.99,0,82.48,0,36.96,0,73.93,0,110.89-69.22-39.96-138.44-79.93-207.65-119.89-109.06-62.96-176.24-179.33-176.24-305.26v-239.78Z"/>
</svg>