<?xml version="1.0" encoding="UTF-8"?>
<svg id="Layer_1" data-name="Layer 1" xmlns="http://www.w3.org/2000/svg" viewBox="0 0 575.84 997.39">
  <defs>
    <style>
      .cls-1 {
        fill: #0f0f10;
      }
    </style>
  </defs>
  <path class="cls-1" d="M0,0c49.87,28.79,99.74,57.58,149.61,86.38,33.86,19.55,67.73,39.1,101.59,58.65,5.68,3.28,17.92,11.36,26.88,26.88,6.34,10.98,9.84,23.6,9.84,36.72v169.21c0,74.78,39.9,143.89,104.66,181.28l146.54,84.6c22.72,13.12,36.72,37.36,36.72,63.6,0,41.24,0,82.48,0,123.72,0,55.45,0,110.89,0,166.34-103.83-59.95-207.65-119.89-311.48-179.84C100.77,723.1,0,548.56,0,359.67V0Z"/>
</svg>